<svg width="472" height="80" viewBox="0 0 472 80" fill="none" xmlns="http://www.w3.org/2000/svg">
<g filter="url(#filter0_dd_18_33)">
<path d="M12 9.99999C12 5.58172 15.5817 2 20 2H451.986C456.404 2 459.986 5.58172 459.986 10V49.9896C459.986 54.4079 456.404 57.9896 451.986 57.9896H20C15.5817 57.9896 12 54.4079 12 49.9896V9.99999Z" fill="#5EEAD4" shape-rendering="crispEdges"/>
<path d="M212.373 34.1823H226.805V35.3967H212.373V34.1823ZM218.832 30.7855H220.276V34.6927H218.832V30.7855ZM214.133 22.6191H225.01V27.4415H215.612V30.6271H214.168V26.2799H223.567V23.8159H214.133V22.6191ZM214.168 30.0111H225.38V31.2079H214.168V30.0111ZM230.13 23.1295H240.373V24.3263H230.13V23.1295ZM228.564 33.8303H242.943V35.0447H228.564V33.8303ZM239.581 23.1295H241.025V24.7311C241.025 25.3999 241.013 26.1157 240.989 26.8783C240.978 27.6292 240.931 28.4623 240.849 29.3775C240.766 30.2927 240.626 31.3253 240.426 32.4751L238.948 32.3167C239.159 31.2373 239.306 30.2458 239.388 29.3423C239.482 28.4389 239.534 27.6058 239.546 26.8431C239.57 26.0804 239.581 25.3764 239.581 24.7311V23.1295ZM256.335 21.4575H257.796V33.0735H256.335V21.4575ZM247.57 35.8191H258.289V37.0159H247.57V35.8191ZM247.57 31.8943H249.031V36.2239H247.57V31.8943ZM249.26 22.5663C250.058 22.5663 250.768 22.7306 251.39 23.0591C252.011 23.3876 252.504 23.8511 252.868 24.4495C253.232 25.0362 253.414 25.7109 253.414 26.4735C253.414 27.2362 253.232 27.9167 252.868 28.5151C252.504 29.1018 252.011 29.5652 251.39 29.9055C250.768 30.2341 250.058 30.3983 249.26 30.3983C248.474 30.3983 247.764 30.2341 247.13 29.9055C246.509 29.5652 246.016 29.1018 245.652 28.5151C245.288 27.9167 245.106 27.2362 245.106 26.4735C245.106 25.7109 245.288 25.0362 245.652 24.4495C246.016 23.8511 246.509 23.3876 247.13 23.0591C247.764 22.7306 248.474 22.5663 249.26 22.5663ZM249.26 23.8335C248.744 23.8335 248.28 23.945 247.87 24.1679C247.459 24.3908 247.13 24.7018 246.884 25.1007C246.649 25.4996 246.532 25.9572 246.532 26.4735C246.532 27.0015 246.649 27.465 246.884 27.8639C247.13 28.2511 247.459 28.5562 247.87 28.7791C248.28 29.002 248.744 29.1135 249.26 29.1135C249.776 29.1135 250.24 29.002 250.65 28.7791C251.073 28.5562 251.401 28.2511 251.636 27.8639C251.871 27.465 251.988 27.0015 251.988 26.4735C251.988 25.9572 251.871 25.4996 251.636 25.1007C251.401 24.7018 251.073 24.3908 250.65 24.1679C250.24 23.945 249.776 23.8335 249.26 23.8335Z" fill="white"/>
</g>
<defs>
<filter id="filter0_dd_18_33" x="0" y="0" width="471.986" height="79.9893" filterUnits="userSpaceOnUse" color-interpolation-filters="sRGB">
<feFlood flood-opacity="0" result="BackgroundImageFix"/>
<feColorMatrix in="SourceAlpha" type="matrix" values="0 0 0 0 0 0 0 0 0 0 0 0 0 0 0 0 0 0 127 0" result="hardAlpha"/>
<feMorphology radius="4" operator="erode" in="SourceAlpha" result="effect1_dropShadow_18_33"/>
<feOffset dy="4"/>
<feGaussianBlur stdDeviation="3"/>
<feComposite in2="hardAlpha" operator="out"/>
<feColorMatrix type="matrix" values="0 0 0 0 0 0 0 0 0 0 0 0 0 0 0 0 0 0 0.1 0"/>
<feBlend mode="normal" in2="BackgroundImageFix" result="effect1_dropShadow_18_33"/>
<feColorMatrix in="SourceAlpha" type="matrix" values="0 0 0 0 0 0 0 0 0 0 0 0 0 0 0 0 0 0 127 0" result="hardAlpha"/>
<feMorphology radius="3" operator="erode" in="SourceAlpha" result="effect2_dropShadow_18_33"/>
<feOffset dy="10"/>
<feGaussianBlur stdDeviation="7.5"/>
<feComposite in2="hardAlpha" operator="out"/>
<feColorMatrix type="matrix" values="0 0 0 0 0 0 0 0 0 0 0 0 0 0 0 0 0 0 0.1 0"/>
<feBlend mode="normal" in2="effect1_dropShadow_18_33" result="effect2_dropShadow_18_33"/>
<feBlend mode="normal" in="SourceGraphic" in2="effect2_dropShadow_18_33" result="shape"/>
</filter>
</defs>
</svg>
