<svg width="116" height="116" viewBox="0 0 116 116" fill="none" xmlns="http://www.w3.org/2000/svg">
<path d="M40 45C40 42.2386 42.2386 40 45 40H71C73.7614 40 76 42.2386 76 45V71C76 73.7614 73.7614 76 71 76H45C42.2386 76 40 73.7614 40 71V45Z" fill="#1E2939"/>
<path d="M45 40V41H71V40V39H45V40ZM76 45H75V71H76H77V45H76ZM71 76V75H45V76V77H71V76ZM40 71H41V45H40H39V71H40ZM45 76V75C42.7909 75 41 73.2091 41 71H40H39C39 74.3137 41.6863 77 45 77V76ZM76 71H75C75 73.2091 73.2091 75 71 75V76V77C74.3137 77 77 74.3137 77 71H76ZM71 40V41C73.2091 41 75 42.7909 75 45H76H77C77 41.6863 74.3137 39 71 39V40ZM45 40V39C41.6863 39 39 41.6863 39 45H40H41C41 42.7909 42.7909 41 45 41V40Z" fill="black"/>
<path d="M45 40V41H71V40V39H45V40ZM76 45H75V71H76H77V45H76ZM71 76V75H45V76V77H71V76ZM40 71H41V45H40H39V71H40ZM45 76V75C42.7909 75 41 73.2091 41 71H40H39C39 74.3137 41.6863 77 45 77V76ZM76 71H75C75 73.2091 73.2091 75 71 75V76V77C74.3137 77 77 74.3137 77 71H76ZM71 40V41C73.2091 41 75 42.7909 75 45H76H77C77 41.6863 74.3137 39 71 39V40ZM45 40V39C41.6863 39 39 41.6863 39 45H40H41C41 42.7909 42.7909 41 45 41V40Z" fill="black" fill-opacity="0.2"/>
<path d="M45 40V41H71V40V39H45V40ZM76 45H75V71H76H77V45H76ZM71 76V75H45V76V77H71V76ZM40 71H41V45H40H39V71H40ZM45 76V75C42.7909 75 41 73.2091 41 71H40H39C39 74.3137 41.6863 77 45 77V76ZM76 71H75C75 73.2091 73.2091 75 71 75V76V77C74.3137 77 77 74.3137 77 71H76ZM71 40V41C73.2091 41 75 42.7909 75 45H76H77C77 41.6863 74.3137 39 71 39V40ZM45 40V39C41.6863 39 39 41.6863 39 45H40H41C41 42.7909 42.7909 41 45 41V40Z" fill="black" fill-opacity="0.2"/>
<path d="M51.333 57.999C51.333 56.2309 52.0359 54.5354 53.2861 53.2852C54.5364 52.0349 56.2319 51.332 58 51.332H58.0029C59.7366 51.3387 61.4048 51.9739 62.7021 53.1123L62.957 53.3467L64.4717 54.8613C64.7316 55.1216 64.7318 55.5435 64.4717 55.8037C64.2113 56.0641 63.7887 56.0641 63.5283 55.8037L62.0215 54.2969V54.2959C60.9403 53.2551 59.499 52.6718 57.998 52.666C56.5843 52.6665 55.2282 53.2278 54.2285 54.2275C53.2283 55.2277 52.667 56.5845 52.667 57.999C52.667 58.3672 52.3682 58.666 52 58.666C51.6318 58.666 51.333 58.3672 51.333 57.999Z" fill="white"/>
<path d="M63.3335 51.999C63.3335 51.6309 63.6315 51.3322 63.9995 51.332C64.3677 51.332 64.6665 51.6308 64.6665 51.999V55.332C64.6665 55.7002 64.3677 55.999 63.9995 55.999H60.6665C60.2983 55.999 59.9995 55.7002 59.9995 55.332C59.9997 54.964 60.2984 54.666 60.6665 54.666H63.3335V51.999Z" fill="white"/>
<path d="M63.3332 57.999C63.3332 57.6308 63.632 57.332 64.0002 57.332C64.3684 57.332 64.6672 57.6308 64.6672 57.999C64.6672 59.7671 63.9643 61.4626 62.7141 62.7129C61.4638 63.9631 59.7683 64.666 58.0002 64.666H57.9973C56.148 64.659 54.3727 63.9367 53.0432 62.6514L51.5285 61.1367C51.2685 60.8764 51.2684 60.4546 51.5285 60.1943C51.7889 59.934 52.2115 59.934 52.4719 60.1943L53.9787 61.7012C55.0597 62.742 56.5003 63.325 58.0012 63.3311C59.4153 63.3308 60.7717 62.7705 61.7717 61.7705C62.7719 60.7703 63.3332 59.4135 63.3332 57.999Z" fill="white"/>
<path d="M51.333 64V60.667C51.333 60.2988 51.6318 60 52 60H55.333C55.7012 60 56 60.2988 56 60.667C56 61.0352 55.7012 61.334 55.333 61.334H52.667V64C52.667 64.3682 52.3682 64.667 52 64.667C51.6318 64.667 51.333 64.3682 51.333 64Z" fill="white"/>
</svg>
