<svg width="60" height="60" viewBox="0 0 60 60" fill="none" xmlns="http://www.w3.org/2000/svg">
<g filter="url(#filter0_dd_532_22)">
<path d="M12 18C12 9.16344 19.1634 2 28 2H32C40.8366 2 48 9.16344 48 18V22C48 30.8366 40.8366 38 32 38H28C19.1634 38 12 30.8366 12 22V18Z" fill="#1E2939"/>
<path d="M24 20C24 18.4087 24.6321 16.8826 25.7574 15.7574C26.8826 14.6321 28.4087 14 30 14C31.6774 14.0063 33.2874 14.6608 34.4933 15.8267L36 17.3333" stroke="white" stroke-width="1.33333" stroke-linecap="round" stroke-linejoin="round"/>
<path d="M36.0001 14V17.3333H32.6667" stroke="white" stroke-width="1.33333" stroke-linecap="round" stroke-linejoin="round"/>
<path d="M36 20C36 21.5913 35.3679 23.1174 34.2426 24.2426C33.1174 25.3679 31.5913 26 30 26C28.3226 25.9937 26.7126 25.3392 25.5067 24.1733L24 22.6667" stroke="white" stroke-width="1.33333" stroke-linecap="round" stroke-linejoin="round"/>
<path d="M27.3333 22.666H24V25.9993" stroke="white" stroke-width="1.33333" stroke-linecap="round" stroke-linejoin="round"/>
</g>
<defs>
<filter id="filter0_dd_532_22" x="0" y="0" width="60" height="60" filterUnits="userSpaceOnUse" color-interpolation-filters="sRGB">
<feFlood flood-opacity="0" result="BackgroundImageFix"/>
<feColorMatrix in="SourceAlpha" type="matrix" values="0 0 0 0 0 0 0 0 0 0 0 0 0 0 0 0 0 0 127 0" result="hardAlpha"/>
<feMorphology radius="4" operator="erode" in="SourceAlpha" result="effect1_dropShadow_532_22"/>
<feOffset dy="4"/>
<feGaussianBlur stdDeviation="3"/>
<feComposite in2="hardAlpha" operator="out"/>
<feColorMatrix type="matrix" values="0 0 0 0 0 0 0 0 0 0 0 0 0 0 0 0 0 0 0.1 0"/>
<feBlend mode="normal" in2="BackgroundImageFix" result="effect1_dropShadow_532_22"/>
<feColorMatrix in="SourceAlpha" type="matrix" values="0 0 0 0 0 0 0 0 0 0 0 0 0 0 0 0 0 0 127 0" result="hardAlpha"/>
<feMorphology radius="3" operator="erode" in="SourceAlpha" result="effect2_dropShadow_532_22"/>
<feOffset dy="10"/>
<feGaussianBlur stdDeviation="7.5"/>
<feComposite in2="hardAlpha" operator="out"/>
<feColorMatrix type="matrix" values="0 0 0 0 0 0 0 0 0 0 0 0 0 0 0 0 0 0 0.1 0"/>
<feBlend mode="normal" in2="effect1_dropShadow_532_22" result="effect2_dropShadow_532_22"/>
<feBlend mode="normal" in="SourceGraphic" in2="effect2_dropShadow_532_22" result="shape"/>
</filter>
</defs>
</svg>
