<svg width="216" height="60" viewBox="0 0 216 60" fill="none" xmlns="http://www.w3.org/2000/svg">
<g filter="url(#filter0_dd_133_677)">
<path d="M12 18C12 9.16344 19.1634 2 28 2H187.847C196.684 2 203.847 9.16344 203.847 18V22C203.847 30.8366 196.684 38 187.847 38H28C19.1634 38 12 30.8366 12 22V18Z" fill="#1E2939" shape-rendering="crispEdges"/>
<path d="M26 20C26 18.4087 26.6321 16.8826 27.7574 15.7574C28.8826 14.6321 30.4087 14 32 14C33.6774 14.0063 35.2874 14.6608 36.4933 15.8267L38 17.3333" stroke="white" stroke-width="1.33333" stroke-linecap="round" stroke-linejoin="round"/>
<path d="M38.0001 14V17.3333H34.6667" stroke="white" stroke-width="1.33333" stroke-linecap="round" stroke-linejoin="round"/>
<path d="M38 20C38 21.5913 37.3679 23.1174 36.2426 24.2426C35.1174 25.3679 33.5913 26 32 26C30.3226 25.9937 28.7126 25.3392 27.5067 24.1733L26 22.6667" stroke="white" stroke-width="1.33333" stroke-linecap="round" stroke-linejoin="round"/>
<path d="M29.3333 22.666H26V25.9993" stroke="white" stroke-width="1.33333" stroke-linecap="round" stroke-linejoin="round"/>
<path d="M59.36 12.612H60.27V15.034C60.27 15.6967 60.2 16.3453 60.06 16.98C59.92 17.6053 59.724 18.198 59.472 18.758C59.22 19.318 58.9073 19.822 58.534 20.27C58.17 20.7087 57.7593 21.068 57.302 21.348L56.56 20.494C56.9987 20.2327 57.386 19.906 57.722 19.514C58.0673 19.122 58.3613 18.6833 58.604 18.198C58.856 17.7033 59.0427 17.19 59.164 16.658C59.2947 16.1167 59.36 15.5753 59.36 15.034V12.612ZM59.556 12.612H60.48V14.964C60.48 15.4867 60.536 16.0047 60.648 16.518C60.7693 17.0313 60.942 17.5167 61.166 17.974C61.3993 18.4313 61.6793 18.8467 62.006 19.22C62.3327 19.5933 62.706 19.892 63.126 20.116L62.426 21.026C61.9687 20.7647 61.558 20.424 61.194 20.004C60.8393 19.5747 60.5407 19.0893 60.298 18.548C60.0553 18.0067 59.8687 17.4327 59.738 16.826C59.6167 16.2193 59.556 15.5987 59.556 14.964V12.612ZM66.346 11.422H67.466V24.092H66.346V11.422ZM64.33 16.518H66.766V17.47H64.33V16.518ZM63.56 11.688H64.666V23.448H63.56V11.688ZM69.5789 21.558H81.0589V22.524H69.5789V21.558ZM74.7169 18.856H75.8649V21.964H74.7169V18.856ZM70.9789 12.36H79.6309V16.196H72.1549V18.73H71.0069V15.272H78.4829V13.312H70.9789V12.36ZM71.0069 18.24H79.9249V19.192H71.0069V18.24ZM82.4438 17.848H93.9238V18.8H82.4438V17.848ZM87.6938 18.45H88.8698V21.362H87.6938V18.45ZM83.9138 22.846H92.6498V23.812H83.9138V22.846ZM83.9138 20.116H85.0758V23.112H83.9138V20.116ZM88.1698 11.744C89.0658 11.744 89.8451 11.8467 90.5078 12.052C91.1705 12.2573 91.6838 12.5513 92.0478 12.934C92.4211 13.3073 92.6078 13.76 92.6078 14.292C92.6078 14.8053 92.4211 15.2533 92.0478 15.636C91.6838 16.0187 91.1705 16.3127 90.5078 16.518C89.8451 16.7233 89.0658 16.826 88.1698 16.826C87.2831 16.826 86.5038 16.7233 85.8318 16.518C85.1691 16.3127 84.6511 16.0187 84.2778 15.636C83.9138 15.2533 83.7318 14.8053 83.7318 14.292C83.7318 13.76 83.9138 13.3073 84.2778 12.934C84.6511 12.5513 85.1691 12.2573 85.8318 12.052C86.5038 11.8467 87.2831 11.744 88.1698 11.744ZM88.1698 12.682C87.5351 12.682 86.9751 12.7473 86.4898 12.878C86.0045 13.0087 85.6265 13.1953 85.3558 13.438C85.0945 13.6713 84.9638 13.956 84.9638 14.292C84.9638 14.6187 85.0945 14.9033 85.3558 15.146C85.6265 15.3793 86.0045 15.5613 86.4898 15.692C86.9751 15.8133 87.5351 15.874 88.1698 15.874C88.8231 15.874 89.3878 15.8133 89.8638 15.692C90.3398 15.5613 90.7085 15.3793 90.9698 15.146C91.2405 14.9033 91.3758 14.6187 91.3758 14.292C91.3758 13.956 91.2405 13.6713 90.9698 13.438C90.7085 13.1953 90.3398 13.0087 89.8638 12.878C89.3878 12.7473 88.8231 12.682 88.1698 12.682ZM102.523 12.024H103.489V13.256C103.489 14.0587 103.34 14.81 103.041 15.51C102.752 16.21 102.337 16.8213 101.795 17.344C101.263 17.8573 100.643 18.2493 99.9332 18.52L99.3452 17.596C99.8212 17.4187 100.251 17.1853 100.633 16.896C101.025 16.5973 101.361 16.2567 101.641 15.874C101.931 15.4913 102.15 15.076 102.299 14.628C102.449 14.18 102.523 13.7227 102.523 13.256V12.024ZM102.733 12.024H103.699V13.256C103.699 13.7133 103.774 14.152 103.923 14.572C104.082 14.992 104.301 15.384 104.581 15.748C104.861 16.112 105.193 16.434 105.575 16.714C105.967 16.994 106.397 17.2133 106.863 17.372L106.289 18.296C105.589 18.0347 104.969 17.6613 104.427 17.176C103.895 16.6813 103.48 16.098 103.181 15.426C102.883 14.754 102.733 14.0307 102.733 13.256V12.024ZM101.151 19.682H109.607V24.092H108.445V20.634H101.151V19.682ZM108.445 11.422H109.607V19.038H108.445V11.422ZM120.778 11.422H121.94V20.592H120.778V11.422ZM121.576 15.174H123.816V16.14H121.576V15.174ZM112.7 17.386H113.68C114.548 17.386 115.309 17.3767 115.962 17.358C116.615 17.3393 117.217 17.2973 117.768 17.232C118.319 17.1667 118.874 17.078 119.434 16.966L119.574 17.918C118.986 18.03 118.407 18.1187 117.838 18.184C117.278 18.2493 116.667 18.296 116.004 18.324C115.341 18.3427 114.567 18.352 113.68 18.352H112.7V17.386ZM112.7 12.514H118.286V13.466H113.848V17.904H112.7V12.514ZM114.058 22.86H122.5V23.812H114.058V22.86ZM114.058 19.668H115.206V23.294H114.058V19.668ZM134.026 19.472H135.174V24.106H134.026V19.472ZM128.888 19.08H140.326V20.046H128.888V19.08ZM134.026 13.606H135.048V13.928C135.048 14.3573 134.959 14.768 134.782 15.16C134.604 15.5427 134.357 15.8973 134.04 16.224C133.722 16.5507 133.349 16.8447 132.92 17.106C132.5 17.358 132.042 17.5727 131.548 17.75C131.062 17.918 130.554 18.0393 130.022 18.114L129.602 17.19C130.059 17.1247 130.502 17.022 130.932 16.882C131.37 16.742 131.772 16.5693 132.136 16.364C132.509 16.1587 132.836 15.93 133.116 15.678C133.405 15.4167 133.629 15.1413 133.788 14.852C133.946 14.5533 134.026 14.2453 134.026 13.928V13.606ZM134.166 13.606H135.188V13.928C135.188 14.236 135.267 14.5393 135.426 14.838C135.584 15.1273 135.804 15.4027 136.084 15.664C136.364 15.916 136.686 16.1493 137.05 16.364C137.423 16.5693 137.824 16.742 138.254 16.882C138.692 17.022 139.14 17.1247 139.598 17.19L139.178 18.114C138.646 18.0393 138.132 17.918 137.638 17.75C137.152 17.5727 136.695 17.358 136.266 17.106C135.846 16.8447 135.477 16.5507 135.16 16.224C134.852 15.8973 134.609 15.5427 134.432 15.16C134.254 14.768 134.166 14.3573 134.166 13.928V13.606ZM129.994 12.99H139.22V13.928H129.994V12.99ZM134.026 11.422H135.174V13.312H134.026V11.422ZM144.93 13.816H145.882V14.446C145.882 15.202 145.738 15.9067 145.448 16.56C145.159 17.204 144.748 17.764 144.216 18.24C143.694 18.716 143.078 19.08 142.368 19.332L141.794 18.422C142.42 18.2167 142.966 17.9133 143.432 17.512C143.908 17.1107 144.277 16.6487 144.538 16.126C144.8 15.594 144.93 15.034 144.93 14.446V13.816ZM145.126 13.816H146.078V14.446C146.078 14.9967 146.209 15.524 146.47 16.028C146.741 16.5227 147.114 16.9567 147.59 17.33C148.066 17.7033 148.617 17.9927 149.242 18.198L148.668 19.108C147.968 18.8747 147.352 18.534 146.82 18.086C146.288 17.6287 145.873 17.092 145.574 16.476C145.276 15.8507 145.126 15.174 145.126 14.446V13.816ZM142.116 13.116H148.878V14.054H142.116V13.116ZM144.93 11.506H146.092V13.466H144.93V11.506ZM148.444 15.314H151.636V16.294H148.444V15.314ZM151.02 11.436H152.182V20.886H151.02V11.436ZM144.104 22.86H152.532V23.812H144.104V22.86ZM144.104 20.046H145.252V23.364H144.104V20.046ZM163.311 11.422H164.473V18.828H163.311V11.422ZM164.151 14.474H166.335V15.44H164.151V14.474ZM155.163 12.136H156.311V14.068H159.881V12.136H161.029V18.044H155.163V12.136ZM156.311 14.992V17.106H159.881V14.992H156.311ZM156.549 19.528H164.571V20.466H157.711V23.644H156.549V19.528ZM156.549 22.972H164.809V23.91H156.549V22.972ZM176.75 11.422H177.912V24.092H176.75V11.422ZM173.04 12.794H174.188C174.188 13.7087 174.076 14.5907 173.852 15.44C173.638 16.2893 173.297 17.0967 172.83 17.862C172.364 18.618 171.757 19.3227 171.01 19.976C170.264 20.6293 169.358 21.2127 168.294 21.726L167.678 20.788C168.901 20.2 169.909 19.514 170.702 18.73C171.496 17.946 172.084 17.0733 172.466 16.112C172.849 15.1413 173.04 14.096 173.04 12.976V12.794ZM168.266 12.794H173.53V13.732H168.266V12.794Z" fill="white"/>
</g>
<defs>
<filter id="filter0_dd_133_677" x="0" y="0" width="215.847" height="60" filterUnits="userSpaceOnUse" color-interpolation-filters="sRGB">
<feFlood flood-opacity="0" result="BackgroundImageFix"/>
<feColorMatrix in="SourceAlpha" type="matrix" values="0 0 0 0 0 0 0 0 0 0 0 0 0 0 0 0 0 0 127 0" result="hardAlpha"/>
<feMorphology radius="4" operator="erode" in="SourceAlpha" result="effect1_dropShadow_133_677"/>
<feOffset dy="4"/>
<feGaussianBlur stdDeviation="3"/>
<feComposite in2="hardAlpha" operator="out"/>
<feColorMatrix type="matrix" values="0 0 0 0 0 0 0 0 0 0 0 0 0 0 0 0 0 0 0.1 0"/>
<feBlend mode="normal" in2="BackgroundImageFix" result="effect1_dropShadow_133_677"/>
<feColorMatrix in="SourceAlpha" type="matrix" values="0 0 0 0 0 0 0 0 0 0 0 0 0 0 0 0 0 0 127 0" result="hardAlpha"/>
<feMorphology radius="3" operator="erode" in="SourceAlpha" result="effect2_dropShadow_133_677"/>
<feOffset dy="10"/>
<feGaussianBlur stdDeviation="7.5"/>
<feComposite in2="hardAlpha" operator="out"/>
<feColorMatrix type="matrix" values="0 0 0 0 0 0 0 0 0 0 0 0 0 0 0 0 0 0 0.1 0"/>
<feBlend mode="normal" in2="effect1_dropShadow_133_677" result="effect2_dropShadow_133_677"/>
<feBlend mode="normal" in="SourceGraphic" in2="effect2_dropShadow_133_677" result="shape"/>
</filter>
</defs>
</svg>
