<svg width="90" height="90" viewBox="0 0 90 90" fill="none" xmlns="http://www.w3.org/2000/svg">
<path opacity="0.12" d="M44.9943 85.4886C67.359 85.4886 85.4891 67.3585 85.4891 44.9938C85.4891 22.6292 67.359 4.49902 44.9943 4.49902C22.6297 4.49902 4.49951 22.6292 4.49951 44.9938C4.49951 67.3585 22.6297 85.4886 44.9943 85.4886Z" fill="url(#paint0_linear_28_372)"/>
<path d="M13.498 44.9944H26.9963L31.4957 31.4961L35.9952 58.4926L40.4946 44.9944L44.994 35.9955L49.4934 53.9932L53.9928 44.9944L58.4923 40.4949L62.9917 49.4938L67.4911 44.9944H76.49" stroke="url(#paint1_linear_28_372)" stroke-width="3.1496" stroke-linecap="round" stroke-linejoin="round"/>
<path opacity="0.3" d="M13.498 44.9944H26.9963L31.4957 31.4961L35.9952 58.4926L40.4946 44.9944L44.994 35.9955L49.4934 53.9932L53.9928 44.9944L58.4923 40.4949L62.9917 49.4938L67.4911 44.9944H76.49" stroke="url(#paint2_linear_28_372)" stroke-width="0.899884" stroke-linecap="round" stroke-linejoin="round"/>
<defs>
<linearGradient id="paint0_linear_28_372" x1="4.49951" y1="4.49902" x2="8103.46" y2="8103.46" gradientUnits="userSpaceOnUse">
<stop stop-color="#10B981"/>
<stop offset="0.5" stop-color="#14B8A6"/>
<stop offset="1" stop-color="#0EA5E9"/>
</linearGradient>
<linearGradient id="paint1_linear_28_372" x1="13.498" y1="31.4961" x2="1968.42" y2="4592.98" gradientUnits="userSpaceOnUse">
<stop stop-color="#10B981"/>
<stop offset="0.5" stop-color="#14B8A6"/>
<stop offset="1" stop-color="#0EA5E9"/>
</linearGradient>
<linearGradient id="paint2_linear_28_372" x1="13.498" y1="31.4961" x2="1968.42" y2="4592.98" gradientUnits="userSpaceOnUse">
<stop stop-color="#10B981"/>
<stop offset="0.5" stop-color="#14B8A6"/>
<stop offset="1" stop-color="#0EA5E9"/>
</linearGradient>
</defs>
</svg>
