<svg width="70" height="70" viewBox="0 0 70 70" fill="none" xmlns="http://www.w3.org/2000/svg">
<path opacity="0.12" d="M34.9943 66.4886C52.3884 66.4886 66.4891 52.3879 66.4891 34.9938C66.4891 17.5997 52.3884 3.49902 34.9943 3.49902C17.6002 3.49902 3.49951 17.5997 3.49951 34.9938C3.49951 52.3879 17.6002 66.4886 34.9943 66.4886Z" fill="url(#paint0_linear_12_5034)"/>
<path d="M10.498 34.9944H20.9963L24.4957 24.4961L27.9952 45.4926L31.4946 34.9944L34.994 27.9955L38.4934 41.9932L41.9928 34.9944L45.4923 31.4949L48.9917 38.4938L52.4911 34.9944H59.49" stroke="url(#paint1_linear_12_5034)" stroke-width="2.4496" stroke-linecap="round" stroke-linejoin="round"/>
<path opacity="0.3" d="M10.498 34.9944H20.9963L24.4957 24.4961L27.9952 45.4926L31.4946 34.9944L34.994 27.9955L38.4934 41.9932L41.9928 34.9944L45.4923 31.4949L48.9917 38.4938L52.4911 34.9944H59.49" stroke="url(#paint2_linear_12_5034)" stroke-width="0.699884" stroke-linecap="round" stroke-linejoin="round"/>
<defs>
<linearGradient id="paint0_linear_12_5034" x1="3.49951" y1="3.49902" x2="6302.46" y2="6302.46" gradientUnits="userSpaceOnUse">
<stop stop-color="#10B981"/>
<stop offset="0.5" stop-color="#14B8A6"/>
<stop offset="1" stop-color="#0EA5E9"/>
</linearGradient>
<linearGradient id="paint1_linear_12_5034" x1="10.498" y1="24.4961" x2="1530.94" y2="3572.19" gradientUnits="userSpaceOnUse">
<stop stop-color="#10B981"/>
<stop offset="0.5" stop-color="#14B8A6"/>
<stop offset="1" stop-color="#0EA5E9"/>
</linearGradient>
<linearGradient id="paint2_linear_12_5034" x1="10.498" y1="24.4961" x2="1530.94" y2="3572.19" gradientUnits="userSpaceOnUse">
<stop stop-color="#10B981"/>
<stop offset="0.5" stop-color="#14B8A6"/>
<stop offset="1" stop-color="#0EA5E9"/>
</linearGradient>
</defs>
</svg>
